<svg width="20" height="20" viewBox="0 0 20 20" fill="none" xmlns="http://www.w3.org/2000/svg">
<path d="M2 20V9.52381H0V3.80952H5.2C5.11667 3.66667 5.0625 3.51587 5.0375 3.35714C5.0125 3.19841 5 3.03175 5 2.85714C5 2.06349 5.29167 1.38889 5.875 0.833333C6.45833 0.277778 7.16667 0 8 0C8.38333 0 8.74167 0.0674603 9.075 0.202381C9.40833 0.337302 9.71667 0.52381 10 0.761905C10.2833 0.507937 10.5917 0.31746 10.925 0.190476C11.2583 0.0634921 11.6167 0 12 0C12.8333 0 13.5417 0.277778 14.125 0.833333C14.7083 1.38889 15 2.06349 15 2.85714C15 3.03175 14.9833 3.19444 14.95 3.34524C14.9167 3.49603 14.8667 3.65079 14.8 3.80952H20V9.52381H18V20H2ZM12 1.90476C11.7167 1.90476 11.4792 1.99603 11.2875 2.17857C11.0958 2.36111 11 2.5873 11 2.85714C11 3.12698 11.0958 3.35317 11.2875 3.53571C11.4792 3.71825 11.7167 3.80952 12 3.80952C12.2833 3.80952 12.5208 3.71825 12.7125 3.53571C12.9042 3.35317 13 3.12698 13 2.85714C13 2.5873 12.9042 2.36111 12.7125 2.17857C12.5208 1.99603 12.2833 1.90476 12 1.90476ZM7 2.85714C7 3.12698 7.09583 3.35317 7.2875 3.53571C7.47917 3.71825 7.71667 3.80952 8 3.80952C8.28333 3.80952 8.52083 3.71825 8.7125 3.53571C8.90417 3.35317 9 3.12698 9 2.85714C9 2.5873 8.90417 2.36111 8.7125 2.17857C8.52083 1.99603 8.28333 1.90476 8 1.90476C7.71667 1.90476 7.47917 1.99603 7.2875 2.17857C7.09583 2.36111 7 2.5873 7 2.85714ZM2 5.71429V7.61905H9V5.71429H2ZM9 18.0952V9.52381H4V18.0952H9ZM11 18.0952H16V9.52381H11V18.0952ZM18 7.61905V5.71429H11V7.61905H18Z" fill="white"/>
</svg>
